<svg xmlns="http://www.w3.org/2000/svg" viewBox="420 820 1210 470"><g transform="translate(0.000000,2048.000000) scale(0.100000,-0.100000)"
fill="#878C7A" stroke="none">
<path d="M6549 11945 c-3 -2 -34 -6 -69 -9 -36 -3 -101 -10 -145 -15 -44 -6
-129 -15 -190 -20 -192 -19 -478 -51 -494 -56 -9 -2 -77 -13 -151 -24 -169
-26 -369 -62 -525 -97 -66 -14 -149 -32 -185 -39 -143 -30 -262 -90 -314 -158
-14 -18 -38 -60 -53 -92 -28 -59 -28 -63 -31 -285 -2 -144 1 -246 8 -285 15
-74 58 -160 102 -202 45 -44 144 -90 216 -102 78 -12 152 -51 191 -98 49 -60
72 -133 87 -288 45 -440 83 -629 195 -968 76 -229 247 -530 401 -704 118 -134
268 -264 408 -356 256 -166 572 -279 955 -338 107 -16 201 -23 400 -26 242 -4
272 -3 440 22 225 32 320 57 575 150 153 55 361 173 500 283 326 259 544 554
750 1017 50 113 60 136 60 146 0 6 11 38 23 72 13 34 36 103 51 152 16 50 38
124 51 165 13 41 36 118 51 170 52 182 115 280 215 335 49 27 64 30 171 33
108 4 121 2 172 -21 151 -69 202 -155 310 -522 62 -211 78 -262 97 -303 10
-23 19 -50 19 -60 1 -9 9 -35 20 -57 11 -22 19 -44 20 -48 1 -26 181 -400 220
-457 10 -14 34 -51 55 -83 147 -231 387 -472 626 -632 81 -54 291 -162 394
-203 247 -99 603 -162 907 -162 124 0 441 31 563 55 148 29 222 47 290 67 477
142 809 361 1061 698 165 221 306 504 374 755 12 44 28 100 36 125 20 66 71
322 84 420 17 135 29 237 39 346 11 116 36 176 98 236 39 37 113 77 146 78 34
0 163 51 208 82 58 39 103 106 124 183 20 77 32 435 17 516 -21 108 -80 196
-173 255 -43 27 -201 84 -234 84 -10 0 -55 9 -100 19 -141 34 -388 79 -670
122 -220 33 -235 35 -730 90 -111 12 -233 21 -260 20 -11 -1 -162 -1 -335 0
-314 1 -733 -14 -885 -31 -382 -44 -673 -97 -960 -175 -55 -15 -127 -34 -160
-41 -33 -7 -76 -20 -95 -27 -51 -21 -450 -150 -555 -180 -319 -91 -647 -115
-1025 -77 -187 20 -302 49 -735 191 -240 78 -319 102 -510 153 -153 42 -498
111 -660 132 -231 30 -262 33 -555 49 -216 13 -375 16 -595 12 -168 -3 -307
-1 -316 4 -9 4 -18 7 -20 4z m1101 -339 c85 -9 202 -21 260 -27 379 -38 746
-125 1230 -291 285 -98 459 -145 700 -190 114 -21 152 -23 435 -22 248 0 323
3 375 16 36 9 90 19 120 23 109 13 318 71 585 162 105 35 210 70 235 78 25 7
90 27 145 44 55 17 133 38 173 46 41 8 78 17 82 20 24 15 548 108 665 119 39
3 147 14 240 23 208 21 824 24 1045 5 80 -6 223 -16 319 -22 96 -6 238 -19
315 -30 78 -10 193 -26 256 -34 319 -43 485 -71 635 -106 44 -11 98 -22 120
-25 22 -4 77 -18 123 -31 114 -35 117 -41 117 -249 -1 -119 -5 -168 -15 -190
-18 -35 -77 -70 -132 -79 -67 -11 -184 -73 -248 -133 -111 -102 -171 -243
-195 -454 -8 -74 -22 -197 -31 -273 -8 -77 -22 -164 -30 -195 -8 -30 -14 -65
-14 -76 0 -27 -43 -196 -80 -310 -112 -352 -261 -599 -494 -823 -192 -184
-503 -343 -816 -418 -36 -8 -91 -22 -123 -30 -32 -8 -158 -26 -280 -40 -251
-29 -340 -28 -615 6 -253 32 -417 81 -646 196 -264 133 -515 355 -681 603 -63
96 -205 347 -205 365 0 5 -9 28 -19 50 -18 38 -58 140 -102 261 -10 28 -27 82
-38 120 -146 509 -210 650 -354 781 -115 106 -277 164 -456 164 -265 0 -478
-134 -588 -370 -56 -121 -70 -162 -154 -440 -58 -194 -75 -246 -105 -325 -14
-38 -33 -88 -41 -110 -36 -100 -136 -296 -210 -415 -153 -243 -373 -461 -625
-618 -229 -142 -487 -231 -794 -272 -356 -47 -737 -13 -1149 105 -33 9 -64 20
-70 25 -5 4 -28 13 -50 20 -141 45 -390 200 -524 326 -375 353 -573 839 -641
1574 -23 250 -48 358 -104 455 -64 108 -232 226 -364 254 -29 6 -66 18 -82 26
-56 29 -60 44 -60 228 0 185 7 215 58 240 56 28 418 108 642 142 52 8 133 22
180 30 152 27 442 64 580 75 74 5 191 14 260 20 200 16 233 17 670 15 303 -1
457 -6 570 -19z"/>
<path d="M6815 11354 c-84 -7 -356 -54 -435 -76 -221 -60 -411 -167 -536 -299
-193 -206 -273 -459 -274 -860 0 -102 4 -210 9 -240 5 -30 14 -94 21 -144 24
-183 94 -407 186 -601 127 -266 349 -503 597 -638 200 -109 464 -189 717 -217
148 -17 483 -17 630 0 375 42 720 207 990 473 317 312 528 859 532 1378 5 534
-230 852 -762 1032 -224 76 -470 136 -630 153 -36 4 -103 14 -150 22 -64 12
-177 16 -465 18 -209 1 -402 1 -430 -1z m772 -314 c391 -36 626 -85 892 -187
215 -83 347 -204 425 -390 40 -96 50 -167 50 -333 0 -184 -14 -299 -54 -452
-74 -286 -169 -477 -334 -670 -107 -125 -204 -198 -385 -288 -263 -132 -451
-167 -851 -157 -255 7 -365 24 -564 86 -435 136 -728 469 -844 961 -34 141
-62 380 -62 521 0 120 24 297 55 400 55 184 198 329 406 414 250 101 769 140
1266 95z"/>
<path d="M13010 11354 c-69 -4 -252 -26 -410 -50 -154 -23 -383 -78 -520 -124
-94 -31 -266 -106 -290 -125 -8 -6 -36 -24 -62 -39 -178 -101 -328 -305 -392
-531 -80 -286 -39 -820 85 -1103 11 -23 19 -47 19 -53 0 -11 35 -93 78 -179
67 -137 228 -349 341 -450 39 -35 110 -92 158 -127 88 -63 292 -170 368 -193
22 -6 63 -20 90 -30 246 -92 808 -108 1155 -34 266 57 511 163 685 297 72 55
200 182 252 250 145 188 262 453 331 752 31 130 40 191 53 365 39 505 -78 850
-366 1080 -151 120 -425 224 -675 255 -30 4 -84 14 -120 22 -47 10 -154 15
-390 17 -179 2 -354 2 -390 0z m676 -309 c169 -17 403 -62 494 -97 180 -68
269 -136 360 -274 63 -95 98 -197 115 -337 19 -154 19 -248 0 -428 -46 -421
-198 -770 -430 -987 -90 -84 -149 -124 -280 -190 -129 -65 -248 -104 -427
-138 -135 -26 -159 -28 -418 -28 -263 0 -280 2 -405 28 -210 46 -427 143 -572
258 -124 98 -281 293 -353 438 -50 101 -119 309 -149 448 -49 227 -50 527 -1
664 11 32 20 63 20 69 0 30 100 176 156 228 186 170 597 296 1099 336 105 9
197 17 205 19 44 11 447 4 586 -9z"/>
</g><circle cx="751" cy="1058" r="44" fill="#C6E43C"/><circle cx="1297" cy="1058" r="44" fill="#C6E43C"/></svg>